<?xml version="1.0" standalone="no"?>
<!DOCTYPE svg PUBLIC "-//W3C//DTD SVG 20010904//EN"
 "http://www.w3.org/TR/2001/REC-SVG-20010904/DTD/svg10.dtd">
<svg version="1.0" xmlns="http://www.w3.org/2000/svg"
 width="700.000000pt" height="700.000000pt" viewBox="0 0 700.000000 700.000000"
 preserveAspectRatio="xMidYMid meet">
<metadata>
Created by potrace 1.14, written by Peter Selinger 2001-2017
</metadata>
<g transform="translate(0.000000,700.000000) scale(0.100000,-0.100000)"
fill="#000000" stroke="none">
<path d="M3280 6925 c-69 -40 -147 -86 -175 -101 -27 -14 -62 -35 -77 -45 -14
-11 -28 -19 -31 -19 -3 0 -52 -28 -109 -62 -56 -34 -112 -66 -123 -72 -17 -10
-300 -174 -373 -217 -87 -51 -835 -486 -872 -507 -25 -14 -74 -42 -109 -64
-34 -21 -65 -38 -67 -38 -3 0 -21 -11 -42 -24 -20 -13 -194 -115 -387 -226
-192 -112 -359 -209 -369 -216 -19 -13 -19 -13 0 -20 10 -4 26 -13 34 -19 8
-7 35 -24 60 -37 60 -33 81 -45 325 -188 212 -124 245 -143 312 -181 21 -12
50 -30 65 -40 14 -11 29 -19 32 -19 4 0 23 -11 44 -23 20 -13 57 -35 82 -49
25 -14 97 -56 160 -93 63 -37 131 -77 150 -87 19 -11 131 -76 248 -145 118
-68 228 -132 245 -142 18 -10 57 -33 87 -51 30 -18 69 -41 85 -50 17 -10 125
-73 240 -140 116 -68 224 -130 240 -139 17 -9 86 -50 155 -91 69 -41 132 -78
141 -82 8 -3 46 -24 82 -47 37 -23 69 -41 70 -41 2 0 3 754 3 1675 0 921 0
1675 0 1675 -1 0 -57 -34 -126 -75z"/>
<path d="M3594 5320 c0 -919 3 -1669 7 -1668 3 2 149 86 323 188 174 102 340
198 369 214 29 15 59 34 68 42 8 8 19 14 22 14 4 0 278 158 609 352 524 305
754 439 873 508 55 31 328 191 468 273 75 44 134 84 130 87 -6 6 -413 243
-550 321 -17 10 -280 163 -585 340 -304 177 -566 330 -583 339 -16 10 -124 73
-240 140 -115 67 -266 155 -335 195 -69 40 -186 108 -260 152 -75 44 -142 83
-150 87 -8 4 -24 12 -35 19 -84 50 -115 67 -122 67 -5 0 -9 -712 -9 -1670z"/>
<path d="M420 3500 c0 -918 2 -1670 6 -1670 3 0 87 48 187 107 100 58 198 115
217 126 19 11 114 66 210 122 96 56 194 113 217 126 23 13 226 132 452 264
226 132 419 245 429 250 69 39 222 128 432 250 135 79 264 153 286 166 197
113 434 254 434 259 0 5 -607 363 -864 509 -22 13 -79 46 -126 74 -47 27 -110
64 -140 80 -30 17 -83 48 -118 69 -34 21 -65 38 -68 38 -2 0 -17 8 -32 19 -15
10 -58 36 -97 59 -111 63 -732 424 -930 540 -99 58 -193 113 -210 122 -16 10
-85 49 -152 89 -68 39 -125 71 -128 71 -3 0 -5 -751 -5 -1670z"/>
<path d="M3200 3234 c-107 -63 -202 -118 -210 -123 -8 -5 -114 -67 -235 -137
-121 -70 -236 -137 -255 -149 -19 -13 -66 -41 -105 -62 -38 -22 -135 -78 -215
-125 -227 -133 -641 -374 -681 -396 -20 -11 -72 -41 -115 -67 -167 -100 -191
-113 -249 -145 -33 -18 -67 -39 -76 -46 -8 -8 -18 -14 -21 -14 -5 0 -176 -97
-228 -129 -8 -6 -75 -44 -148 -87 -73 -42 -131 -78 -130 -79 11 -11 211 -125
219 -125 5 0 9 -4 9 -10 0 -5 4 -10 9 -10 7 0 72 -36 204 -114 84 -49 776
-451 802 -466 17 -9 122 -71 235 -137 113 -66 293 -170 400 -233 107 -62 247
-143 310 -180 130 -77 596 -347 651 -378 l36 -20 -1 1674 c0 921 -2 1674 -5
1673 -3 0 -94 -52 -201 -115z"/>
<path d="M3594 1675 l0 -1674 40 22 c23 12 43 25 44 30 2 4 7 7 12 7 5 0 280
158 612 351 332 194 824 480 1093 637 270 156 537 312 595 346 58 34 112 65
120 69 8 4 29 16 45 27 17 11 37 23 45 27 81 41 269 158 263 163 -4 4 -354
209 -778 455 -423 246 -830 483 -904 526 -73 44 -136 79 -139 79 -3 0 -13 6
-21 14 -9 7 -41 27 -71 43 -30 17 -80 45 -110 63 -30 18 -71 42 -90 53 -19 11
-48 28 -65 38 -16 10 -41 24 -55 31 -14 8 -97 56 -185 107 -88 52 -203 119
-255 149 -52 30 -116 68 -141 84 -25 15 -48 28 -50 28 -3 0 -5 -754 -5 -1675z"/>
</g>
</svg>
