<svg width="388.428" height="97.998" viewBox="0 0 388.428 97.998" xmlns="http://www.w3.org/2000/svg"><g id="svgGroup" stroke-linecap="round" fill-rule="evenodd" font-size="9pt" fill="white" style="stroke:#fff;stroke-width:0.25mm;fill:white"><path d="M 354.395 39.795 L 354.395 57.617 A 17.285 17.285 0 0 1 354.109 60.67 A 23.113 23.113 0 0 1 353.467 63.306 A 16.999 16.999 0 0 1 350.464 68.97 A 15.856 15.856 0 0 1 346.837 72.276 A 19.604 19.604 0 0 1 345.044 73.34 Q 341.895 74.995 337.47 75.092 A 25.375 25.375 0 0 1 336.914 75.098 L 314.014 75.098 A 17.285 17.285 0 0 1 310.961 74.812 A 23.113 23.113 0 0 1 308.325 74.17 A 16.999 16.999 0 0 1 302.661 71.167 A 15.856 15.856 0 0 1 299.355 67.54 A 19.604 19.604 0 0 1 298.291 65.747 Q 296.636 62.598 296.539 58.173 A 25.375 25.375 0 0 1 296.533 57.617 A 17.294 17.294 0 0 1 296.795 54.692 A 23.362 23.362 0 0 1 297.461 51.904 Q 298.389 48.828 300.464 46.216 A 15.856 15.856 0 0 1 304.091 42.91 A 19.604 19.604 0 0 1 305.884 41.846 Q 309.033 40.191 313.458 40.094 A 25.375 25.375 0 0 1 314.014 40.088 L 336.914 40.088 L 336.914 52.197 L 314.014 52.197 A 6.766 6.766 0 0 0 312.373 52.385 A 4.567 4.567 0 0 0 310.01 53.784 A 5.543 5.543 0 0 0 308.619 57.106 A 7.291 7.291 0 0 0 308.594 57.715 A 6.086 6.086 0 0 0 308.805 59.363 A 4.442 4.442 0 0 0 310.229 61.597 A 5.797 5.797 0 0 0 314.111 62.988 L 336.914 62.988 A 6.867 6.867 0 0 0 338.555 62.804 A 4.581 4.581 0 0 0 340.918 61.426 A 5.422 5.422 0 0 0 342.299 58.233 A 7.197 7.197 0 0 0 342.334 57.52 L 342.334 39.795 A 6.509 6.509 0 0 0 342.118 38.071 A 4.755 4.755 0 0 0 340.796 35.84 Q 339.258 34.375 336.914 34.375 L 309.033 34.375 L 309.033 22.314 L 336.914 22.314 A 17.285 17.285 0 0 1 339.967 22.6 A 23.113 23.113 0 0 1 342.603 23.242 A 16.999 16.999 0 0 1 348.267 26.245 A 15.856 15.856 0 0 1 351.573 29.872 A 19.604 19.604 0 0 1 352.637 31.665 Q 354.292 34.814 354.388 39.239 A 25.375 25.375 0 0 1 354.395 39.795 Z M 220.752 75.098 L 186.377 75.098 L 186.377 62.402 L 220.654 62.402 A 8.093 8.093 0 0 0 222.148 62.274 Q 222.972 62.119 223.616 61.777 A 3.922 3.922 0 0 0 224.561 61.084 A 4.239 4.239 0 0 0 225.617 59.261 Q 225.814 58.603 225.863 57.815 A 8.7 8.7 0 0 0 225.879 57.275 A 7.703 7.703 0 0 0 225.53 55.235 Q 224.771 52.933 222.418 52.375 A 7.233 7.233 0 0 0 220.752 52.197 L 201.074 52.197 A 20.092 20.092 0 0 1 197.872 51.956 Q 196.095 51.668 194.613 51.04 A 11.729 11.729 0 0 1 193.945 50.732 A 16.091 16.091 0 0 1 191.07 48.911 A 13.12 13.12 0 0 1 189.185 47.07 A 14.339 14.339 0 0 1 187.015 43.582 A 13.162 13.162 0 0 1 186.548 42.334 Q 185.742 39.795 185.742 37.598 A 19.8 19.8 0 0 1 185.982 34.426 Q 186.266 32.681 186.884 31.232 A 11.292 11.292 0 0 1 187.256 30.444 A 15.435 15.435 0 0 1 189.298 27.417 A 13.051 13.051 0 0 1 191.064 25.732 A 14.941 14.941 0 0 1 196.045 23.12 A 20.157 20.157 0 0 1 198.645 22.516 A 15.357 15.357 0 0 1 201.074 22.314 L 232.275 22.314 L 232.275 35.01 L 201.172 35.01 Q 200.218 35.01 199.66 35.22 A 2.076 2.076 0 0 0 199.634 35.229 A 2.45 2.45 0 0 0 199.257 35.413 Q 199.057 35.534 198.914 35.684 A 1.331 1.331 0 0 0 198.804 35.815 A 1.718 1.718 0 0 0 198.555 36.289 A 1.54 1.54 0 0 0 198.486 36.597 Q 198.438 37.012 198.438 37.402 A 4.635 4.635 0 0 0 198.487 37.857 Q 198.525 38.087 198.585 38.278 A 1.875 1.875 0 0 0 198.73 38.623 A 1.868 1.868 0 0 0 198.958 38.95 A 1.362 1.362 0 0 0 199.341 39.258 A 1.876 1.876 0 0 0 199.945 39.455 A 2.293 2.293 0 0 0 200.171 39.478 A 17.239 17.239 0 0 0 201.047 39.502 A 16.024 16.024 0 0 0 201.074 39.502 L 220.752 39.502 A 22.688 22.688 0 0 1 224.477 39.792 Q 226.626 40.15 228.406 40.949 A 13.487 13.487 0 0 1 229.053 41.26 A 18.072 18.072 0 0 1 232.47 43.514 A 14.985 14.985 0 0 1 234.57 45.679 Q 236.67 48.34 237.622 51.465 A 23.335 23.335 0 0 1 238.329 54.435 A 17.329 17.329 0 0 1 238.574 57.275 A 22.245 22.245 0 0 1 238.367 60.382 A 17.001 17.001 0 0 1 237.744 63.159 A 18.619 18.619 0 0 1 236.569 66.038 A 15.321 15.321 0 0 1 235.547 67.749 A 14.948 14.948 0 0 1 232.429 71.075 A 14.204 14.204 0 0 1 232.373 71.118 A 18.521 18.521 0 0 1 228.589 73.389 A 19.451 19.451 0 0 1 224.585 74.683 A 20.798 20.798 0 0 1 222.256 75.029 A 16.981 16.981 0 0 1 220.752 75.098 Z M 52.197 62.402 L 52.197 75.098 L 17.773 75.098 Q 15.137 75.098 12.012 74.17 Q 8.887 73.242 6.226 71.118 A 16.257 16.257 0 0 1 2.854 67.409 A 19.917 19.917 0 0 1 1.782 65.601 A 14.704 14.704 0 0 1 0.446 61.823 Q 0.084 60.131 0.016 58.187 A 26.126 26.126 0 0 1 0 57.275 L 0 40.088 A 17.666 17.666 0 0 1 0.187 37.572 A 21.348 21.348 0 0 1 0.415 36.279 A 19.51 19.51 0 0 1 1.655 32.423 A 21.501 21.501 0 0 1 1.709 32.3 Q 2.588 30.322 3.979 28.516 A 14.926 14.926 0 0 1 7.333 25.352 A 16.285 16.285 0 0 1 7.349 25.342 A 16.251 16.251 0 0 1 10.356 23.716 A 19.737 19.737 0 0 1 11.914 23.145 Q 14.502 22.314 17.773 22.314 L 52.197 22.314 L 52.197 35.01 L 17.773 35.01 A 7.823 7.823 0 0 0 16.334 35.134 Q 14.879 35.406 13.989 36.279 A 3.92 3.92 0 0 0 13.045 37.815 Q 12.695 38.816 12.695 40.186 L 12.695 57.275 Q 12.695 59.121 13.42 60.323 A 3.966 3.966 0 0 0 14.014 61.084 A 4.201 4.201 0 0 0 15.759 62.113 Q 16.422 62.321 17.223 62.379 A 8.897 8.897 0 0 0 17.871 62.402 L 52.197 62.402 Z M 294.58 22.314 L 294.58 35.01 L 272.412 35.01 L 272.412 75.098 L 259.57 75.098 L 259.57 35.01 L 243.066 35.01 L 243.066 22.314 L 259.57 22.314 L 259.57 5.078 L 272.412 5.078 L 272.412 22.314 L 294.58 22.314 Z M 175.439 22.314 L 175.439 80.176 A 22.245 22.245 0 0 1 175.232 83.282 A 17.001 17.001 0 0 1 174.609 86.06 A 18.619 18.619 0 0 1 173.434 88.938 A 15.321 15.321 0 0 1 172.412 90.649 A 14.948 14.948 0 0 1 169.295 93.975 A 14.204 14.204 0 0 1 169.238 94.019 A 18.521 18.521 0 0 1 165.454 96.289 A 19.666 19.666 0 0 1 161.725 97.529 A 18.268 18.268 0 0 1 161.475 97.583 Q 159.473 97.998 157.666 97.998 L 134.766 97.998 L 134.766 85.303 L 157.666 85.303 A 7.78 7.78 0 0 0 159.112 85.177 Q 160.597 84.896 161.475 83.984 A 4.243 4.243 0 0 0 162.465 82.253 Q 162.666 81.599 162.722 80.812 A 8.905 8.905 0 0 0 162.744 80.176 L 162.744 22.314 L 175.439 22.314 Z M 108.887 22.314 L 108.887 35.01 L 80.322 35.01 A 8.245 8.245 0 0 0 78.831 35.136 Q 77.323 35.413 76.416 36.304 Q 75.248 37.451 75.115 39.537 A 8.671 8.671 0 0 0 75.098 40.088 L 75.098 75.098 L 62.402 75.098 L 62.402 40.088 A 22.114 22.114 0 0 1 62.61 36.987 A 16.683 16.683 0 0 1 63.232 34.229 A 17.956 17.956 0 0 1 64.489 31.232 A 15.128 15.128 0 0 1 65.454 29.663 A 15.521 15.521 0 0 1 68.317 26.56 A 14.529 14.529 0 0 1 68.652 26.294 A 18.521 18.521 0 0 1 72.437 24.023 A 19.451 19.451 0 0 1 76.44 22.729 A 21.115 21.115 0 0 1 78.606 22.397 A 16.53 16.53 0 0 1 80.225 22.314 L 108.887 22.314 Z M 388.428 62.402 L 388.428 75.098 L 382.764 75.098 A 18.386 18.386 0 0 1 379.411 74.775 A 23.817 23.817 0 0 1 376.929 74.17 A 17.191 17.191 0 0 1 371.311 71.25 A 19.498 19.498 0 0 1 371.143 71.118 A 15.994 15.994 0 0 1 367.636 67.218 A 19.431 19.431 0 0 1 366.699 65.601 Q 365.106 62.525 364.957 58.187 A 26.488 26.488 0 0 1 364.941 57.275 L 364.941 0 L 377.637 0 L 377.637 57.275 A 6.078 6.078 0 0 0 377.843 58.899 A 4.516 4.516 0 0 0 379.102 61.011 A 5.017 5.017 0 0 0 382.35 62.39 A 6.623 6.623 0 0 0 382.764 62.402 L 388.428 62.402 Z M 157.666 62.402 L 157.666 75.098 L 134.766 75.098 A 18.386 18.386 0 0 1 131.413 74.775 A 23.817 23.817 0 0 1 128.931 74.17 A 17.191 17.191 0 0 1 123.313 71.25 A 19.498 19.498 0 0 1 123.145 71.118 A 15.994 15.994 0 0 1 119.638 67.218 A 19.431 19.431 0 0 1 118.701 65.601 Q 117.108 62.525 116.959 58.187 A 26.488 26.488 0 0 1 116.943 57.275 L 116.943 22.314 L 129.639 22.314 L 129.639 57.275 Q 129.639 59.121 130.363 60.323 A 3.966 3.966 0 0 0 130.957 61.084 A 4.17 4.17 0 0 0 132.654 62.093 Q 133.311 62.306 134.109 62.372 A 9.092 9.092 0 0 0 134.863 62.402 L 157.666 62.402 Z" vector-effect="non-scaling-stroke"/></g></svg>